<?xml version="1.0" encoding="UTF-8" ?>
<!DOCTYPE svg PUBLIC "-//W3C//DTD SVG 1.1//EN" "http://www.w3.org/Graphics/SVG/1.1/DTD/svg11.dtd">
<svg width="124pt" height="124pt" viewBox="0 0 124 124" version="1.1" xmlns="http://www.w3.org/2000/svg">
<g id="#333333ff">
<path fill="#333333" opacity="1.00" d=" M 57.19 4.55 C 57.38 3.25 57.58 1.96 57.79 0.67 C 60.60 0.65 63.40 0.65 66.21 0.67 C 66.41 1.95 66.61 3.24 66.79 4.52 C 68.51 4.89 70.25 5.12 71.99 5.24 C 72.62 4.13 73.04 2.86 74.03 1.99 C 76.68 2.21 79.23 3.00 81.78 3.69 C 81.77 5.11 81.75 6.54 81.74 7.96 C 83.27 8.57 84.79 9.20 86.32 9.83 C 87.16 8.88 87.99 7.93 88.83 6.98 C 91.10 7.99 93.67 8.70 95.48 10.48 C 95.73 11.95 95.51 13.45 95.63 14.94 C 96.58 16.03 97.67 17.00 98.75 17.96 C 100.05 17.17 101.40 16.46 102.81 15.87 C 104.61 17.78 106.68 19.49 108.03 21.76 C 107.49 22.89 106.87 23.99 106.16 25.04 C 107.10 26.21 108.05 27.37 108.99 28.54 C 110.61 28.63 112.80 27.40 113.87 29.15 C 115.59 31.10 116.64 33.54 116.82 36.14 C 116.12 36.44 114.73 37.05 114.03 37.35 C 114.68 38.99 115.35 40.63 116.01 42.27 C 117.45 42.25 118.89 42.23 120.33 42.22 C 121.00 44.76 121.85 47.30 121.91 49.96 C 121.24 51.11 119.81 51.43 118.74 52.07 C 118.96 53.77 119.19 55.46 119.45 57.15 C 120.77 57.33 122.09 57.50 123.41 57.66 C 123.35 60.50 123.33 63.34 123.34 66.18 C 122.06 66.43 120.79 66.68 119.52 66.92 C 119.21 68.61 118.94 70.31 118.71 72.01 C 119.75 72.63 121.29 72.76 121.85 74.01 C 121.99 76.72 120.92 79.31 120.25 81.90 C 118.98 81.76 117.71 81.62 116.44 81.49 C 115.62 83.01 114.84 84.56 114.19 86.17 C 114.78 86.69 115.94 87.74 116.52 88.27 C 116.54 89.18 116.55 90.09 116.56 91.01 C 115.39 92.59 114.44 94.36 113.01 95.74 C 111.65 95.71 110.29 95.59 108.93 95.38 C 107.98 96.57 107.03 97.76 106.09 98.96 C 106.80 100.17 107.51 101.38 108.21 102.61 C 106.36 104.49 104.51 106.37 102.64 108.24 C 101.42 107.52 100.21 106.81 98.99 106.11 C 97.80 107.09 96.60 108.05 95.35 108.94 C 95.52 110.46 95.78 111.98 95.67 113.51 C 93.65 115.17 91.18 116.14 88.75 117.01 C 87.95 116.02 87.16 115.04 86.36 114.06 C 84.76 114.82 83.19 115.66 81.60 116.45 C 81.69 117.74 81.76 119.03 81.82 120.32 C 79.06 120.97 76.26 122.20 73.38 121.72 C 72.85 120.75 72.39 119.75 71.98 118.73 C 70.18 118.99 68.38 119.27 66.58 119.60 C 66.58 120.51 66.57 122.34 66.56 123.25 C 63.52 123.35 60.49 123.36 57.45 123.24 C 57.44 122.33 57.41 120.49 57.39 119.58 C 55.60 119.27 53.81 118.98 52.02 118.73 C 51.63 119.74 51.17 120.72 50.64 121.66 C 47.77 122.31 44.94 120.92 42.18 120.32 C 42.24 119.02 42.31 117.72 42.39 116.43 C 40.80 115.65 39.23 114.82 37.64 114.07 C 36.84 115.05 36.05 116.03 35.27 117.02 C 32.90 116.13 30.45 115.23 28.48 113.59 C 27.92 112.10 28.59 110.48 28.66 108.95 C 27.41 108.05 26.19 107.09 25.01 106.10 C 23.79 106.81 22.59 107.53 21.38 108.24 C 19.50 106.38 17.64 104.49 15.79 102.60 C 16.48 101.38 17.20 100.16 17.92 98.95 C 16.96 97.75 16.00 96.56 15.05 95.37 C 13.70 95.59 12.35 95.72 10.99 95.75 C 9.54 94.36 8.59 92.56 7.41 90.95 C 7.43 90.06 7.45 89.17 7.49 88.28 C 8.04 87.76 9.13 86.73 9.68 86.21 C 9.24 84.65 8.61 83.16 8.01 81.66 C 6.58 81.71 5.15 81.76 3.73 81.82 C 2.77 78.90 1.99 75.85 2.36 72.75 C 3.10 72.69 4.59 72.55 5.33 72.48 C 5.07 70.62 4.84 68.76 4.48 66.92 C 3.21 66.68 1.93 66.43 0.66 66.18 C 0.67 63.34 0.65 60.50 0.59 57.66 C 1.91 57.50 3.23 57.33 4.55 57.15 C 4.81 55.46 5.04 53.77 5.26 52.08 C 4.25 51.34 2.67 51.16 2.10 49.93 C 2.13 47.28 3.01 44.74 3.68 42.20 C 5.14 42.23 6.60 42.26 8.06 42.30 C 8.65 40.71 9.30 39.15 9.76 37.52 C 9.13 37.10 7.87 36.28 7.24 35.87 C 7.37 33.36 8.50 31.06 10.11 29.17 C 11.17 27.40 13.41 28.63 15.03 28.53 C 15.97 27.37 16.91 26.21 17.84 25.04 C 17.15 24.01 16.52 22.93 15.98 21.81 C 17.28 19.49 19.39 17.79 21.19 15.88 C 22.55 16.45 23.86 17.13 25.13 17.87 C 26.31 16.94 27.48 16.00 28.66 15.07 C 28.66 13.42 27.51 11.35 28.96 10.02 C 30.84 8.63 33.08 7.84 35.24 7.00 C 36.04 7.94 36.85 8.89 37.66 9.83 C 39.19 9.20 40.72 8.58 42.26 7.97 C 42.25 6.54 42.24 5.11 42.23 3.68 C 44.75 3.01 47.27 2.21 49.88 2.00 C 50.97 2.78 51.34 4.15 52.00 5.25 C 53.74 5.12 55.48 4.90 57.19 4.55 M 33.83 41.05 C 30.67 45.33 31.78 50.99 31.78 55.94 C 32.23 58.86 31.63 63.01 34.94 64.36 C 38.16 66.44 42.30 67.31 44.67 70.53 C 42.62 70.68 40.56 70.75 38.51 70.80 C 38.70 76.40 40.96 83.16 47.08 84.60 C 51.06 84.78 55.03 83.47 58.66 81.93 C 60.70 81.18 60.19 78.70 60.68 77.02 C 58.29 75.56 55.87 74.14 53.53 72.61 C 52.56 68.04 52.33 63.37 51.67 58.75 C 47.95 55.63 42.53 55.13 39.33 51.41 C 44.36 51.94 50.17 51.56 54.27 54.99 C 54.72 58.94 55.04 62.95 56.03 66.81 C 56.52 69.05 59.19 69.14 61.03 69.20 C 63.20 69.10 66.38 69.78 67.47 67.28 C 68.75 63.15 68.61 58.75 69.63 54.56 C 70.56 53.95 71.50 53.35 72.43 52.74 C 75.47 52.42 78.51 52.09 81.56 51.93 C 80.10 56.15 74.42 55.77 72.03 59.19 C 71.12 63.53 70.89 67.98 70.28 72.37 C 67.97 73.89 65.62 75.34 63.24 76.74 C 63.31 78.24 63.38 79.74 63.45 81.25 C 67.75 83.03 72.36 85.11 77.11 84.51 C 83.02 82.77 84.83 76.18 85.06 70.72 C 83.07 70.74 81.09 70.76 79.12 70.77 C 79.18 70.33 79.30 69.45 79.36 69.01 C 82.84 67.44 86.45 65.97 89.51 63.66 C 92.25 61.62 91.53 57.87 91.89 54.89 C 91.93 50.15 92.62 44.76 89.65 40.69 C 86.30 36.84 81.08 35.09 76.09 34.90 C 71.59 35.61 67.74 38.86 63.01 38.58 C 57.60 39.32 52.98 36.14 48.00 34.78 C 42.71 34.76 37.24 36.93 33.83 41.05 M 47.68 88.62 C 48.71 90.45 49.42 92.76 51.43 93.77 C 54.62 95.74 58.46 94.69 61.98 94.74 C 65.19 94.68 68.68 95.72 71.66 94.02 C 73.85 92.99 74.94 90.72 76.00 88.68 C 72.32 87.90 68.64 87.05 64.92 86.50 C 59.08 85.63 53.36 87.56 47.68 88.62 Z" />
</g>
</svg>
